<svg xmlns:dc="http://purl.org/dc/elements/1.1/" xmlns:cc="http://creativecommons.org/ns#" xmlns:rdf="http://www.w3.org/1999/02/22-rdf-syntax-ns#" xmlns:svg="http://www.w3.org/2000/svg" xmlns="http://www.w3.org/2000/svg" xmlns:sodipodi="http://sodipodi.sourceforge.net/DTD/sodipodi-0.dtd" xmlns:inkscape="http://www.inkscape.org/namespaces/inkscape" version="1.1" x="0px" y="0px" viewBox="0 0 100 125"><g transform="translate(0,-952.36218)"><path style="text-indent:0;text-transform:none;direction:ltr;block-progression:tb;baseline-shift:baseline;color:#000000;enable-background:accumulate;" d="m 33.197049,970.77717 c -5.1602,0 -9.399099,4.23501 -9.399099,9.41 l 0,44.35003 c 0,4.0752 -3.3215,7.41 -7.3991,7.41 -4.0663,0 -7.399,-3.3362 -7.399,-7.41 a 1.0001,1.0001 0 1 0 -2,0 c 0,5.1662 4.2374,9.41 9.399,9.41 5.1705,0 9.399099,-4.2453 9.399099,-9.41 l 0,-44.35003 c 0,-4.085 3.3312,-7.41 7.3991,-7.41 l 0.01,0 c 4.0678,0 7.399,3.325 7.399,7.41 l 0,44.35003 c 0,5.1647 4.228701,9.41 9.399101,9.41 5.1616,0 9.3991,-4.2438 9.3991,-9.41 l 0,-44.35003 c 0,-4.08643 3.32,-7.41 7.399,-7.41 4.0789,0 7.3991,3.32357 7.3991,7.41 l 0,44.35003 c 0,5.1647 4.2284,9.41 9.3987,9.41 5.1705,0 9.3991,-4.2453 9.3991,-9.41 a 1.0001,1.0001 0 1 0 -2,0 c 0,4.0752 -3.3215,7.41 -7.3991,7.41 -4.0774,0 -7.3987,-3.3348 -7.3987,-7.41 l 0,-44.35003 c 0,-5.17357 -4.2302,-9.41 -9.3991,-9.41 -5.169,0 -9.399,4.23643 -9.399,9.41 l 0,44.35003 c 0,4.0738 -3.3327,7.41 -7.3991,7.41 -4.0776,0 -7.399101,-3.3348 -7.399101,-7.41 l 0,-44.35003 c 0,-5.17499 -4.2389,-9.41 -9.399,-9.41 l -0.01,0 z" fill="#000000" fill-opacity="1" fill-rule="evenodd" stroke="none" marker="none" visibility="visible" display="inline" overflow="visible"/></g><text x="0" y="115" fill="#000000" font-size="5px" font-weight="bold" font-family="'Helvetica Neue', Helvetica, Arial-Unicode, Arial, Sans-serif">Created by AliWijaya</text><text x="0" y="120" fill="#000000" font-size="5px" font-weight="bold" font-family="'Helvetica Neue', Helvetica, Arial-Unicode, Arial, Sans-serif">from the Noun Project</text></svg>