<svg xmlns="http://www.w3.org/2000/svg" xmlns:xlink="http://www.w3.org/1999/xlink" version="1.1" x="0px" y="0px" viewBox="0 0 100 125" enable-background="new 0 0 100 100" xml:space="preserve"><g><path fill="none" stroke="#000000" stroke-width="2" stroke-miterlimit="10" d="M4,53.429c0-8.571,12.857-8.571,12.857,0"/><path fill="none" stroke="#000000" stroke-width="2" stroke-miterlimit="10" d="M55.429,53.429c0-8.571,12.857-8.571,12.857,0"/><path fill="none" stroke="#000000" stroke-width="2" stroke-miterlimit="10" d="M42.571,53.429c0,8.571,12.857,8.571,12.857,0"/><path fill="none" stroke="#000000" stroke-width="2" stroke-miterlimit="10" d="M29.714,53.429c0-8.571,12.857-8.571,12.857,0"/><path fill="none" stroke="#000000" stroke-width="2" stroke-miterlimit="10" d="M16.857,53.429c0,8.571,12.857,8.571,12.857,0"/><path fill="none" stroke="#000000" stroke-width="2" stroke-miterlimit="10" d="M68.286,53.429c0,8.571,12.857,8.571,12.857,0"/><path fill="none" stroke="#000000" stroke-width="2" stroke-miterlimit="10" d="M81.143,53.429c0-8.571,12.857-8.571,12.857,0"/></g><text x="0" y="115" fill="#000000" font-size="5px" font-weight="bold" font-family="'Helvetica Neue', Helvetica, Arial-Unicode, Arial, Sans-serif">Created by Lance B</text><text x="0" y="120" fill="#000000" font-size="5px" font-weight="bold" font-family="'Helvetica Neue', Helvetica, Arial-Unicode, Arial, Sans-serif">from the Noun Project</text></svg>